<svg width="22" height="22" viewBox="0 0 22 22" fill="none" xmlns="http://www.w3.org/2000/svg">
<path d="M10.6167 11.8856C13.9137 11.8856 16.5886 9.22374 16.5886 5.94281C16.5886 2.66188 13.9137 0 10.6167 0C7.31971 0 4.6448 2.66188 4.6448 5.94281C4.6448 9.22374 7.31971 11.8856 10.6167 11.8856ZM15.925 13.2062H13.64C12.7193 13.6272 11.6949 13.8666 10.6167 13.8666C9.53843 13.8666 8.51824 13.6272 7.59342 13.2062H5.30835C2.37631 13.2062 0 15.571 0 18.4887V19.1491C0 20.2427 0.891636 21.13 1.99063 21.13H19.2428C20.3417 21.13 21.2334 20.2427 21.2334 19.1491V18.4887C21.2334 15.571 18.8571 13.2062 15.925 13.2062Z" fill="white"/>
</svg>
